<svg version="1.0" xmlns="http://www.w3.org/2000/svg" width="602.667" height="602.667" viewBox="0 0 452 452"><path d="M85.7 57.1c-10.9 2.6-20.9 10.9-26 21.7l-3.2 6.7v281l3.2 6.7c4 8.5 10.6 15.1 19.1 19.1l6.7 3.2h281l6.7-3.2c8.5-4 15.1-10.6 19-18.8 2.4-5.2 3.1-8.2 3.5-16 .5-8.2.8-9.5 2.4-9.5.9 0 2.9-1.4 4.3-3.1l2.6-3.1v-44l-2.9-2.9c-1.6-1.6-3.6-2.9-4.5-2.9-1.4 0-1.6-10.8-1.8-103.3l-.3-103.2-3.1-6.5c-4.6-9.5-9.3-14.3-18.2-18.7l-7.6-3.8-138.5-.2c-78.6 0-140.2.3-142.4.8zM214 113.5V132h20V95h3.9c4.3 0 24.6 2.6 29.7 3.8l3.1.7-4.8 18c-2.6 9.9-4.7 18-4.6 18.1.8.4 17.4 4.4 18.2 4.4.6 0 3-7.4 5.4-16.4 2.4-9 4.7-16.9 5.1-17.6 1-1.6 11.4 1.9 25.1 8.2l8.7 4-8.9 15.3c-4.9 8.5-8.9 15.8-8.9 16.3 0 .9 15 10.2 16.3 10.2.3 0 3.1-4.6 6.3-10.3 3.2-5.6 7.3-12.8 9.1-16l3.4-5.7 8.7 6c4.8 3.3 10.5 7.6 12.7 9.4l4 3.4-4.1 4.8c-2.2 2.7-16.7 20.5-32.3 39.6L301.9 226h-23.4c-18.3 0-23.3-.3-23-1.3 1.2-3.7 17.6-82.9 17.3-83.9-.2-.6-12 18.4-26.2 42.1L220.7 226h-70.6l-32.2-39.7-32.3-39.6 4-3.4c4.9-4.1 18.4-13.6 18.8-13.2.2.2 4.1 7 8.7 15.1l8.4 14.7 7.5-4.1c4.1-2.2 8-4.5 8.7-5 .8-.7-1.2-4.9-7.3-15.4-4.6-8-8.4-14.9-8.4-15.3 0-1.6 31.4-15.2 32.4-14 .1.2 2.2 7.6 4.5 16.4 2.4 8.8 4.6 16.3 5 16.7.5.6 17.7-3.5 18.7-4.4.1-.2-1.7-7.5-4.2-16.3-2.4-8.8-4.4-16.5-4.4-17.2 0-1.7 22-5.8 32.8-6.2l3.2-.1v18.5z"/></svg>